<?xml version="1.0" encoding="UTF-8"?>
<svg xmlns="http://www.w3.org/2000/svg" xmlns:xlink="http://www.w3.org/1999/xlink" viewBox="0 0 48 48" width="48px" height="48px">
<g id="surface1450470">
<path style=" stroke:none;fill-rule:nonzero;fill:rgb(2.745098%,0.392157%,27.843139%);fill-opacity:1;" d="M 15.996094 4.800781 C 9.824219 4.800781 4.800781 9.828125 4.800781 16.003906 L 4.800781 32.003906 C 4.800781 38.175781 9.828125 43.199219 16.003906 43.199219 L 32.003906 43.199219 C 38.175781 43.199219 43.199219 38.171875 43.199219 31.996094 L 43.199219 15.996094 C 43.199219 9.824219 38.171875 4.800781 31.996094 4.800781 Z M 35.199219 11.199219 C 36.082031 11.199219 36.800781 11.917969 36.800781 12.800781 C 36.800781 13.683594 36.082031 14.398438 35.199219 14.398438 C 34.316406 14.398438 33.601562 13.683594 33.601562 12.800781 C 33.601562 11.917969 34.316406 11.199219 35.199219 11.199219 Z M 24 14.398438 C 29.292969 14.398438 33.601562 18.707031 33.601562 24 C 33.601562 29.292969 29.292969 33.601562 24 33.601562 C 18.707031 33.601562 14.398438 29.292969 14.398438 24 C 14.398438 18.707031 18.707031 14.398438 24 14.398438 Z M 24 17.601562 C 20.464844 17.601562 17.601562 20.464844 17.601562 24 C 17.601562 27.535156 20.464844 30.398438 24 30.398438 C 27.535156 30.398438 30.398438 27.535156 30.398438 24 C 30.398438 20.464844 27.535156 17.601562 24 17.601562 Z M 24 17.601562 "/>
</g>
</svg>
